<svg xmlns="http://www.w3.org/2000/svg" width="20" height="14" viewBox="0 0 20 14"><g><g><path fill="#c6cacc" d="M15.998 2.283c-.013-.007-.025-.02-.038-.033a3.64 3.64 0 0 0-2.637-.939l-.031-.068c.006-.006.012-.006.019-.006.916-.199 1.458-.403 1.62-.625.057-.179-.011-.278-.211-.303A5.477 5.477 0 0 0 13.454.6c.48-.29.667-.494.561-.6-.474.012-.985.242-1.521.693.2-.322.274-.495.224-.526-.255.167-.48.347-.673.538-.405.427-.73.822-.98 1.182l-.011.03c-.642.983-1.091 1.972-1.36 2.98l-.1.076-.018.017a5.023 5.023 0 0 0-1.402-1.15 16.934 16.934 0 0 0-2.308-1.156c-.966-.47-1.944-.86-2.936-1.162-.006 1.045.536 1.879 1.615 2.485v.019a3.62 3.62 0 0 0-1.104.155c.069.97.798 1.638 2.182 2.009l-.006.018c-.542-.03-.991.15-1.34.52.455.841 1.26 1.243 2.425 1.212-.23.111-.411.234-.53.371-.212.21-.28.458-.212.742.25.427.699.624 1.36.594l.037.043-.02.018c-1.14 1.114-2.518 1.614-4.133 1.51l-.025.012c-.985-.007-2.038-.451-3.179-1.342 1.147 1.558 2.668 2.683 4.551 3.389 2.157.674 4.315.723 6.465.147h.038c2.088-.569 3.859-1.737 5.317-3.505.674-.928 1.098-1.811 1.266-2.66 1.091.038 1.877-.26 2.363-.89l-.012-.018c-.362.123-1.073.087-2.127-.117v-.112c0-.006 0-.006.007 0 1.154-.124 1.833-.475 2.051-1.058a3.402 3.402 0 0 1-2.382.026c-.143-1.027-.654-1.96-1.54-2.807z"/></g></g></svg>