<svg xmlns="http://www.w3.org/2000/svg" width="16" height="16" viewBox="0 0 16 16"><g><g><path fill="#c6cacc" d="M8.588 7.217l.016-.025v.025zM16 1.147v13.707c0 .632-.53 1.146-1.183 1.146H1.182C.529 16 0 15.486 0 14.854V1.146C0 .513.53 0 1.182 0h13.635C15.471 0 16 .513 16 1.146zM4.85 6.168H2.433v7.224H4.85zm.159-2.235c-.016-.709-.525-1.248-1.352-1.248-.826 0-1.367.54-1.367 1.248 0 .694.525 1.248 1.336 1.248h.016c.842 0 1.367-.554 1.367-1.248zm8.555 5.317c0-2.22-1.192-3.252-2.782-3.252-1.283 0-1.857.7-2.178 1.193V6.169H6.187c.032.677 0 7.224 0 7.224h2.417V9.36c0-.216.015-.432.08-.586.174-.432.572-.878 1.24-.878.874 0 1.223.662 1.223 1.633v3.865h2.417z"/></g></g></svg>